<?xml version="1.0" standalone="yes"?>
<svg xmlns="http://www.w3.org/2000/svg" width="727" height="629">
<path style="fill:#0c0604; stroke:none;" d="M0 0L0 629L727 629L727 0L0 0z"/>
<path style="fill:#cba799; stroke:none;" d="M427 61L430 63L427 61z"/>
<path style="fill:#d99a59; stroke:none;" d="M429 61L430 62L429 61z"/>
<path style="fill:#a85c30; stroke:none;" d="M430.333 61.6667L430.667 62.3333L430.333 61.6667z"/>
<path style="fill:#6e534d; stroke:none;" d="M404 96L404 92L405 92C406.951 99.0873 413.235 99.3917 419 102.517C432.982 110.097 446.644 121.931 461 128C456.965 121.378 459.535 113.136 464 107L464 106L462 105C463.924 102.256 466.166 95.7728 464 93L466 91L466 90L466 89L464 89L467 78L463 79L462 74C466.208 68.8573 452.519 64.6946 449 64L450 66L448 63C432.387 60.3564 416.244 61.2708 407.583 77C405.052 81.597 398.78 91.9531 404 96z"/>
<path style="fill:#a85c30; stroke:none;" d="M427 62L428 63L427 62M432 62L433 63L432 62M422 64L423 65L422 64M448 64L448 66L450 66L448 64M416 71L416 72L426 68L416 71z"/>
<path style="fill:#6e534d; stroke:none;" d="M423 69L424 70L423 69z"/>
<path style="fill:#0c0604; stroke:none;" d="M459 70L460 71L459 70z"/>
<path style="fill:#a85c30; stroke:none;" d="M412 71L413 72L412 71z"/>
<path style="fill:#0c0604; stroke:none;" d="M457 71L458 72L457 71M461 71L460 74L461 71z"/>
<path style="fill:#a85c30; stroke:none;" d="M431 72L432 73L431 72M415 73L416 74L415 73M412 75L411 77L412 75z"/>
<path style="fill:#6e534d; stroke:none;" d="M464.333 75.6667L464.667 76.3333L464.333 75.6667M466 75L466 76L467 78L468 78L469 78L466 75z"/>
<path style="fill:#a85c30; stroke:none;" d="M414 76L415 77L414 76M467 76L468 77L467 76M410 78L411 79L410 78M420 78L420 80L428 80L428 78L420 78M412 79L412 80L414 84L416 84L412 79z"/>
<path style="fill:#0c0604; stroke:none;" d="M462 80L462 81L464 84L465 84L462 80z"/>
<path style="fill:#6e534d; stroke:none;" d="M469 80L470 81L469 80z"/>
<path style="fill:#d99a59; stroke:none;" d="M285 87L286 90L279 90L280 92L271 91L272 94L265 94L266 96L243 101L242 104C239.303 103.146 238.614 103.149 238 106L234 105L234 108L230 107L230 110C225.381 109.572 221.525 111.492 220 116L215 115L216 118L204 124L204 125L206 125L206 126L199 127L200 130C192.846 132.868 175.433 144.271 174 152C170.387 153.026 168.655 154.269 168 158C158.645 161.077 151.217 175.932 145.455 183.449C142.67 187.083 141.991 191.984 137 193L133 200L134 204L132 208L125 215C125.263 218.999 124.537 221.891 121 224L122 230L119 229L117 234L118 240L115 239L116 246C110.167 249.531 111.952 256.124 112 262L109 262L108 288L105 288L105 321C105 325.687 103.855 331.011 108 334C103.584 342.275 111.264 361.444 114 370L115 370C107.938 335.767 113.551 298.579 125.873 266C130.372 254.103 138.488 243.169 142 231C132.446 225.566 133.541 219.642 132 210L135 210L140 205L156 200C169.783 203.232 184.839 179.599 193.975 170.888C212.313 153.403 233.344 139.861 255 126.949C264.127 121.507 277.088 113.249 288 113L293 112L294 109L317 104.36L351 101.004L404.91 105.259L439 114L439 113C425.24 107.585 405.252 91.4014 390 94C389.231 90.4114 387.137 91.166 384 92C383.417 87.3626 377.528 89.5811 374 90L375 87L347 85L348 83L285 87z"/>
<path style="fill:#cba799; stroke:none;" d="M347 84L347 85L353 86C351.268 83.3308 350.058 83.2902 347 84z"/>
<path style="fill:#a85c30; stroke:none;" d="M408 84L407 89L410 84L408 84z"/>
<path style="fill:#cba799; stroke:none;" d="M294 88L299 85L294 88M363 85L368 88L363 85M274 92L280 92L279 90L286 90C283.148 85.7443 276.407 88.241 274 92M374 90L378 90L377 87L374 90M385 90L384 92L386 92L385 90z"/>
<path style="fill:#a85c30; stroke:none;" d="M403 90L402 92L403 90z"/>
<path style="fill:#cba799; stroke:none;" d="M260 96L266 96L265 94L272 94C268.882 89.7435 262.533 92.0326 260 96M390 91L392 94L390 91z"/>
<path style="fill:#a85c30; stroke:none;" d="M406.667 91.3333L407.333 91.6667L406.667 91.3333M404 92L403 97L410 99L410 98L404 92M412 92L409 96L409 97L415 99L415 98L412 97L414 92L412 92z"/>
<path style="fill:#cba799; stroke:none;" d="M395 93L398 96L395 93z"/>
<path style="fill:#a85c30; stroke:none;" d="M401 93L402 94L401 93z"/>
<path style="fill:#cba799; stroke:none;" d="M400 94L400 96L402 96L402 94L400 94z"/>
<path style="fill:#a85c30; stroke:none;" d="M407 94L408 95L407 94M415 96L416 97L415 96z"/>
<path style="fill:#6e534d; stroke:none;" d="M475 96L476 97L475 96z"/>
<path style="fill:#cba799; stroke:none;" d="M246 102L253 97L246 102z"/>
<path style="fill:#a85c30; stroke:none;" d="M410.667 99.3333L411.333 99.6667L410.667 99.3333M412 100L412 101L421 104L421 103L412 100z"/>
<path style="fill:#cba799; stroke:none;" d="M242 101L241 104L242 101z"/>
<path style="fill:#a85c30; stroke:none;" d="M294 109L293 112L288 113C276.318 112.232 261.775 122.537 252 128.129C231.329 139.953 212.207 153.552 194.624 169.645C184.319 179.077 175.23 191.947 164 200L164 201C177.747 198.446 197.273 193.971 211 197.55C219.096 199.661 226.02 207.228 223.142 216C220.589 223.781 213.437 227.479 206 229.115C188.172 233.037 158.238 236.33 141 230C140.394 241.981 129.567 254.658 125.508 266C114.195 297.618 105.715 336.958 115 370L114 370L114 368L113 368C117.229 383.82 124.71 397.61 132.207 412C134.961 417.286 138.006 425.923 144 428C143.965 439.167 159.174 450.799 165 460L170 462L168 461L168 462L171 467L174 465L179 472L183 468C181.494 472.349 182.767 475.8 186 479L184 476L190 476L195 482L194 480L195 480L196 484L197 484L197 482L198 482L198 486L204 488L204 493L206 491L214 492L214 493L212 493L212 494L216 494L216 495L214 495L214 496L237 502L237 503L235 505L246 504L246 508L252 508L250 507L250 508L290 509L292 508C293.216 502.408 290.503 496.363 292.692 491.001C298.93 475.72 324.631 470.306 339 469.95C346.795 469.757 355.703 469.123 363 472.363C366.936 474.111 369.986 478.973 374.084 479.878C377.244 480.576 378.505 478.552 379 476L387 475L386 473L386 472L390 473L389 470L394 469L392 470L392 469L397 469L396 466L401 467L400 464L403 466L404 461L406 463L407 463L406 460L409 461L408 458L411 459L419 453L416 454L420 450L424 451L424 448L433 445L432 442L436 442L437 438L441 439L440 436L443 437L443 434L446 435L451 431L449 429L449 428L455 427L454 424L459 423L460 418C467.523 418.651 479.729 407.546 480 400C484.636 399.056 487.468 396.943 487 392L490 393C495.999 383.437 512.012 371.774 512 360L515 361L514 358L516 359L516 355L518 357C521.678 347.085 510.827 339.741 508.526 330C502.643 305.098 517.658 270.05 546 272L547 270L543 245L541 236L537 237C537.955 233.149 537.341 224.93 533 224L534 221L531 223L533 220L532 217L535 216L535 215L530 216L529 214L530 208L526 204L522 204L525 203L525 202L522 202L522 198L521 198L521 200L520 200L515 180L514 180L513 180L514 182L513 182C511.981 179.374 512.037 175.891 509 178C507.299 161.797 485.716 154.264 479 141L476 141L477 139L476 138L473 139C468.46 131.535 449.66 116.345 441 116L442 114L440 113L406.715 105.456L368.039 101.14L318 104.015L294 109z"/>
<path style="fill:#cba799; stroke:none;" d="M237 103L236 106L237 103z"/>
<path style="fill:#a85c30; stroke:none;" d="M421 104L424 106L421 104z"/>
<path style="fill:#cba799; stroke:none;" d="M233 105L232 108L233 105z"/>
<path style="fill:#a85c30; stroke:none;" d="M425 106L426 107L425 106z"/>
<path style="fill:#cba799; stroke:none;" d="M229 107L228 110L229 107z"/>
<path style="fill:#a85c30; stroke:none;" d="M427 107L428 108L427 107M428.667 108.333L429.333 108.667L428.667 108.333M431 109L432 110L431 109M432 110L432 111L435 111L432 110M435.667 111.333L436.333 111.667L435.667 111.333M437.667 112.333L438.333 112.667L437.667 112.333z"/>
<path style="fill:#cba799; stroke:none;" d="M216 116L220 113L216 116z"/>
<path style="fill:#0c0604; stroke:none;" d="M445 113L446 114L445 113z"/>
<path style="fill:#d99a59; stroke:none;" d="M440 114L441 115L440 114z"/>
<path style="fill:#6e534d; stroke:none;" d="M475 114L476 115L475 114z"/>
<path style="fill:#d99a59; stroke:none;" d="M441.667 115.333L442.333 115.667L441.667 115.333z"/>
<path style="fill:#cba799; stroke:none;" d="M200 128L206 126L206 125L204 125L204 124C208.756 123.314 213.767 120.324 216 116C209.952 118.432 202.942 121.98 200 128z"/>
<path style="fill:#d99a59; stroke:none;" d="M443 116L444 117L443 116z"/>
<path style="fill:#6e534d; stroke:none;" d="M475 117L476 118L475 117M276 138L277 138C280.198 129.709 282.841 121.556 293 121C282.469 116.706 277.808 130.19 276 138z"/>
<path style="fill:#0c0604; stroke:none;" d="M287.003 121.743C282.007 123.655 280.371 128.468 278.551 133C274.466 143.168 269.182 154.126 267.44 165C266.59 170.304 268.118 179.88 275.956 177.214C280.393 175.704 282.1 169.854 283.825 166C288.62 155.286 295.065 141.662 296.659 130.001C297.477 124.018 293.057 119.426 287.003 121.743z"/>
<path style="fill:#6e534d; stroke:none;" d="M294 121L294 123L296 123L294 121M296 123L292 144C296.938 140.063 299.95 128.215 296 123z"/>
<path style="fill:#cba799; stroke:none;" d="M145 183L168 158L174 152C176.838 142.317 193.352 136.151 200 129C193.23 129.161 186.934 136.027 182 140.289C168.698 151.777 150.922 165.803 145 183z"/>
<path style="fill:#6e534d; stroke:none;" d="M462 128L462 130L464 130L462 128M464 130L465 131L464 130M465 131L466 132L465 131M475 131L476 132L475 131M466 132L469 134L466 132M469 134L470 135L469 134M470 135L471 136L470 135M475 135L476 139L477 139L477 135L475 135M472 137L473 138L472 137M473.667 138.333L474.333 138.667L473.667 138.333M275.333 139.667L275.667 140.333L275.333 139.667z"/>
<path style="fill:#cba799; stroke:none;" d="M476 140L478 142L478 140L476 140z"/>
<path style="fill:#6e534d; stroke:none;" d="M274 141L274 144L275 144L274 141z"/>
<path style="fill:#cba799; stroke:none;" d="M183 143L184 144L183 143z"/>
<path style="fill:#6e534d; stroke:none;" d="M272 144L272 149L273 149L274 144L272 144M291.333 146.667L291.667 147.333L291.333 146.667M290 148L290 151L291 151L290 148z"/>
<path style="fill:#cba799; stroke:none;" d="M175 149L176 150L175 149z"/>
<path style="fill:#6e534d; stroke:none;" d="M484 149L485 150L484 149M271 150L270 152L272 152L271 150M289 151L288 155L289 155L289 151M270.333 153.667L270.667 154.333L270.333 153.667M488 153L489 154L488 153z"/>
<path style="fill:#cba799; stroke:none;" d="M490 154L491 155L490 154z"/>
<path style="fill:#d99a59; stroke:none;" d="M491 155L492 156L491 155z"/>
<path style="fill:#6e534d; stroke:none;" d="M269 156L268 160L269 160L269 156M287 156L286 162L287 162L287 156z"/>
<path style="fill:#d99a59; stroke:none;" d="M493 157L494 158L493 157z"/>
<path style="fill:#6e534d; stroke:none;" d="M322 160C314.893 164.194 312.349 170.988 312 179L313 179C313.654 171.508 316.508 165.075 323 161L322 160z"/>
<path style="fill:#0c0604; stroke:none;" d="M327 198C327.05 191.903 328.275 186.002 329.246 180C330.217 174.001 328.083 153.009 317.939 164.279C310.671 172.354 308.827 192.464 308.09 203C307.818 206.877 307.305 212.433 310.573 215.258C313.899 218.133 319.216 216.41 323 215.576C333.06 213.357 353.968 211.661 361.427 204.351C373.204 192.811 350.06 192.288 344 193.92C338.346 195.442 332.824 197.216 327 198z"/>
<path style="fill:#6e534d; stroke:none;" d="M325 161L328 163L325 161M267 162L266 174L267 174L267 162M285.333 162.667L285.667 163.333L285.333 162.667z"/>
<path style="fill:#cba799; stroke:none;" d="M163 163L164 164L163 163z"/>
<path style="fill:#6e534d; stroke:none;" d="M328.333 163.667L328.667 164.333L328.333 163.667M498 163L499 164L498 163M284.333 164.667L284.667 165.333L284.333 164.667M329.333 165.667L329.667 166.333L329.333 165.667M283 166L283 169L284 169L283 166M330 167L330 177L331 177L330 167M282 169L283 170L282 169M281 170L280 175L281 175L281 170M506 172L508 174L506 172M267 174L268 175L267 174M268 175L269 176L268 175M279 175L280 176L279 175M508 175L509 178L510 178L510 175L508 175M269 176L270 177L269 176M278 176L279 177L278 176M270.667 177.333L271.333 177.667L270.667 177.333M276.667 177.333L277.333 177.667L276.667 177.333M409 184C413.036 181.764 417.186 178.417 422 178.29C432.835 178.005 439.556 193.728 443 202C445.823 185.054 421.214 169.259 409 184M273 178L273 179L276 179L273 178M329 178L329 183L330 183L329 178z"/>
<path style="fill:#0c0604; stroke:none;" d="M419 178.533C402.014 182.49 386.295 203.827 373 214.399C332.107 246.917 294.323 283.448 252.91 315.29C239.788 325.38 226.563 335.333 214 346.13C209.394 350.089 202.091 354.717 200.557 361C197.718 372.627 214.116 382.667 222 387.575C248.661 404.173 279.17 409.754 310 403.551C355.838 394.329 398.475 358.117 425 321C434.818 307.262 443.963 292.549 448.127 276C454.789 249.52 454.034 224.026 442.219 199C437.922 189.897 431.36 175.654 419 178.533z"/>
<path style="fill:#6e534d; stroke:none;" d="M510 178L511 179L510 178M512 178L514 182L512 178M311 180L310 190L311 190L311 180M514 182L520 200L521 200L521 198L522 198L525 202L525 203L522 204L526 204L530 208L529 214L530 216L534 215L531 210C530.85 203.361 524.746 193.302 519 190L514 182M328 184L328 189L329 189L328 184z"/>
<path style="fill:#cba799; stroke:none;" d="M142 185L138 194L144 185L142 185z"/>
<path style="fill:#6e534d; stroke:none;" d="M406 185L407 186L406 185M404 186L404 188L406 186L404 186z"/>
<path style="fill:#a85c30; stroke:none;" d="M517 186L518 187L517 186z"/>
<path style="fill:#6e534d; stroke:none;" d="M402 188L401 190L403 190L402 188z"/>
<path style="fill:#a85c30; stroke:none;" d="M519.667 189.333L520.333 189.667L519.667 189.333z"/>
<path style="fill:#6e534d; stroke:none;" d="M327 190L327 198L331 198L331 197L328 197L327 190M400 190L401 191L400 190M399 191L400 192L399 191M513 191L514 192L513 191M308 192L310 195L310 192L308 192M346 192L346 193L351 193L346 192M360 192L364 196L360 192M398 192L399 193L398 192M342 193L342 194L346 194L342 193M396.667 193.333L397.333 193.667L396.667 193.333z"/>
<path style="fill:#cba799; stroke:none;" d="M137 194L133 200L137 194z"/>
<path style="fill:#6e534d; stroke:none;" d="M340.667 194.333L341.333 194.667L340.667 194.333M395 194L396 195L395 194M421.667 194.333L422.333 194.667L421.667 194.333M308 195L308 200L309 200L308 195M336 195L336 196L340 196L336 195M394 195L395 196L394 195M192 197L192 198L216 200C209.686 194.509 199.7 196.995 192 197M331 196L331 197L335 197L331 196M364 196L364 201L365 201L364 196M393 196L394 197L393 196z"/>
<path style="fill:#a85c30; stroke:none;" d="M524 196L525 197L524 196z"/>
<path style="fill:#6e534d; stroke:none;" d="M392 197L393 198L392 197M183 198L183 199L190 199L183 198z"/>
<path style="fill:#0c0604; stroke:none;" d="M190 198.424C175.898 200.281 156.023 198.591 143.015 204.148C136.346 206.997 131.385 214.77 133.855 221.985C136.406 229.438 144.909 231.92 152 231.996C170.321 232.192 189.908 230.929 208 227.854C220.139 225.791 229.134 210.796 217.895 201.419C211.304 195.92 197.985 197.373 190 198.424z"/>
<path style="fill:#6e534d; stroke:none;" d="M390 198L390 200L392 198L390 198M423 198L424 199L423 198M425 198L425 200L427 200L425 198z"/>
<path style="fill:#a85c30; stroke:none;" d="M525 198L526 199L525 198z"/>
<path style="fill:#6e534d; stroke:none;" d="M174 199L174 200L181 200L174 199z"/>
<path style="fill:#cba799; stroke:none;" d="M156 200L157 201L156 200M160 200L160 201L163 201L160 200z"/>
<path style="fill:#6e534d; stroke:none;" d="M166 200L166 201L172 201L166 200M217 200L221 206L222 206L217 200M389 200L390 201L389 200M422 200L424 204L425 204L422 200z"/>
<path style="fill:#a85c30; stroke:none;" d="M156 201L156 202L160 202L156 201z"/>
<path style="fill:#6e534d; stroke:none;" d="M160 201L160 202L165 202L160 201M384 205L389 201L384 205z"/>
<path style="fill:#cba799; stroke:none;" d="M129 208L134 202L129 208M140 204L146 203L140 204z"/>
<path style="fill:#a85c30; stroke:none;" d="M147.667 202.333L148.333 202.667L147.667 202.333z"/>
<path style="fill:#6e534d; stroke:none;" d="M149 202L149 203L154 203L149 202M363 202L362 205L363 202M427 202L428 206L425 208L424 208L422 206L422 209L408 211L404 214L407 221L395 219L395 220L401 221L401 222C397.427 222.574 392.854 222.016 392 226L389 224L389 230L386 231L385 226L384 226L384 232L379 231L380 235L379 236C376.604 235.425 376.513 235.525 376 238L372 236C371.484 237.363 368.716 245.371 368 240L367 240L366 246C363.289 246.187 361.092 246.252 363 249L357 247L355 252L351 251L351 255L350 255C347.989 252.953 346.84 254.107 345 256C353.392 254.789 361.516 271.686 359.142 279C354.713 292.642 333.615 305.948 322 313.228C317.44 316.085 312.733 319.643 307 318.757C298.577 317.456 294.045 307.889 288 303L289 307L285 306L275 315L276 318L272 316L269 319L249.575 335.729L244 343L244 344C236.518 343.739 229.175 353.008 223 357L225 359L225 360C209.137 362.477 230.643 376.911 236 379.738C253.579 389.016 273.953 394.77 294 392.83C353.071 387.114 413.467 331.567 432.691 277C439.69 257.133 444.461 218.179 427 202z"/>
<path style="fill:#d99a59; stroke:none;" d="M141.667 203.333L142.333 203.667L141.667 203.333z"/>
<path style="fill:#a85c30; stroke:none;" d="M143 203L144 204L143 203z"/>
<path style="fill:#6e534d; stroke:none;" d="M307 203L307 211L308 211L307 203M444.333 203.667L444.667 204.333L444.333 203.667z"/>
<path style="fill:#a85c30; stroke:none;" d="M528 203L529 204L528 203z"/>
<path style="fill:#d99a59; stroke:none;" d="M529 203L530 204L529 203z"/>
<path style="fill:#cba799; stroke:none;" d="M138 204L139 205L138 204z"/>
<path style="fill:#a85c30; stroke:none;" d="M140 204L141 205L140 204z"/>
<path style="fill:#6e534d; stroke:none;" d="M141.667 204.333L142.333 204.667L141.667 204.333z"/>
<path style="fill:#a85c30; stroke:none;" d="M527 204L528 205L527 204z"/>
<path style="fill:#cba799; stroke:none;" d="M529.667 204.333L530.333 204.667L529.667 204.333z"/>
<path style="fill:#a85c30; stroke:none;" d="M138 205L135 209L138 205z"/>
<path style="fill:#6e534d; stroke:none;" d="M139 205L140 206L139 205M360.667 205.333L361.333 205.667L360.667 205.333M445.333 205.667L445.667 206.333L445.333 205.667z"/>
<path style="fill:#a85c30; stroke:none;" d="M529.667 205.333L530.333 205.667L529.667 205.333z"/>
<path style="fill:#6e534d; stroke:none;" d="M138 206L139 207L138 206M143 206L144 207L143 206M222 206L222 208L224 208L222 206M358.667 206.333L359.333 206.667L358.667 206.333M382.667 206.333L383.333 206.667L382.667 206.333M137 207L135 210L137 207M140 207L141 208L140 207M355 207L355 208L358 208L355 207M381 207L382 208L381 207z"/>
<path style="fill:#cba799; stroke:none;" d="M134 208L135 209L134 208z"/>
<path style="fill:#6e534d; stroke:none;" d="M351 208L351 209L354 209L351 208M378 210L381 208L378 210M446 208L447 212L448 212L446 208z"/>
<path style="fill:#cba799; stroke:none;" d="M133 209L132 212L133 209z"/>
<path style="fill:#6e534d; stroke:none;" d="M223 209L223 216L224 216L223 209M346 209L346 210L350 210L346 209z"/>
<path style="fill:#a85c30; stroke:none;" d="M531.667 209.333L532.333 209.667L531.667 209.333M134 210L133 212L134 210z"/>
<path style="fill:#6e534d; stroke:none;" d="M339 211L339 212L346 211L339 211M376 210L376 212L378 210L376 210z"/>
<path style="fill:#cba799; stroke:none;" d="M127 211L125 215L127 211z"/>
<path style="fill:#6e534d; stroke:none;" d="M134 211L135 212L134 211M133 212L132 217L133 217L133 212M336.667 212.333L337.333 212.667L336.667 212.333M373 214L376 212L373 214z"/>
<path style="fill:#a85c30; stroke:none;" d="M531 212L532 213L531 212z"/>
<path style="fill:#6e534d; stroke:none;" d="M308 213L310 216L308 213M331 213L331 214L336 214L331 213M448 213L448 216L449 216L448 213z"/>
<path style="fill:#a85c30; stroke:none;" d="M132 214L133 215L132 214z"/>
<path style="fill:#6e534d; stroke:none;" d="M327 214L327 215L331 215L327 214M368 218L373 214L368 218M135 215L136 216L135 215M323 215L323 216L326 216L323 215M528.333 215.667L528.667 216.333L528.333 215.667M222 216L222 219L223 219L222 216M310.667 216.333L311.333 216.667L310.667 216.333M312 217L312 218L321 217L312 217M400.667 216.333L401.333 216.667L400.667 216.333z"/>
<path style="fill:#0c0604; stroke:none;" d="M406.667 216.333L407.333 216.667L406.667 216.333z"/>
<path style="fill:#6e534d; stroke:none;" d="M449 216L449 219L450 219L449 216M534 216L533 220L531 223L534 221L533 224C536.929 226.544 537.283 232.569 537 237L541 236L539 232L534 216z"/>
<path style="fill:#cba799; stroke:none;" d="M124 217L121 224L126 217L124 217z"/>
<path style="fill:#a85c30; stroke:none;" d="M132 217L132 220L133 220L132 217z"/>
<path style="fill:#6e534d; stroke:none;" d="M134 218L135 219L134 218M365 220L368 218L365 220M529.333 218.667L529.667 219.333L529.333 218.667M221 219L222 220L221 219M220.333 220.667L220.667 221.333L220.333 220.667M364 220L365 221L364 220M450 220L450 224L451 224L450 220z"/>
<path style="fill:#a85c30; stroke:none;" d="M535 220L536 221L535 220z"/>
<path style="fill:#6e534d; stroke:none;" d="M133.333 221.667L133.667 222.333L133.333 221.667M360 224L364 221L360 224M387 221L388 222L387 221M219 222L220 223L219 222z"/>
<path style="fill:#a85c30; stroke:none;" d="M133 223L134 224L133 223z"/>
<path style="fill:#6e534d; stroke:none;" d="M218 223L219 224L218 223M384 223L385 224L384 223z"/>
<path style="fill:#0c0604; stroke:none;" d="M407 223L408 224L407 223z"/>
<path style="fill:#6e534d; stroke:none;" d="M529 223L530 228L532 228L529 223M134 224L136 226L134 224M216.667 224.333L217.333 224.667L216.667 224.333M358 224L358 226L360 224L358 224z"/>
<path style="fill:#0c0604; stroke:none;" d="M393 224L393 225L396 225L393 224z"/>
<path style="fill:#a85c30; stroke:none;" d="M537 224L539 227L537 224M134 225L135 226L134 225z"/>
<path style="fill:#6e534d; stroke:none;" d="M215 225L216 226L215 225M451 225L451 229L452 229L451 225z"/>
<path style="fill:#cba799; stroke:none;" d="M120 226L122 230L122 226L120 226z"/>
<path style="fill:#a85c30; stroke:none;" d="M135 226L136 227L135 226z"/>
<path style="fill:#6e534d; stroke:none;" d="M210 227L210 228L215 227L210 227M355 228L358 226L355 228z"/>
<path style="fill:#a85c30; stroke:none;" d="M136 227L138 229L136 227z"/>
<path style="fill:#6e534d; stroke:none;" d="M137 227L138 228L137 227z"/>
<path style="fill:#0c0604; stroke:none;" d="M391 227L391 232L392 232L391 227z"/>
<path style="fill:#cba799; stroke:none;" d="M136 228L137 229L136 228z"/>
<path style="fill:#6e534d; stroke:none;" d="M138 228L139 229L138 228M192 229L192 230L209 229L192 229M354 228L353 230L355 230L354 228z"/>
<path style="fill:#a85c30; stroke:none;" d="M139 229L140 230L139 229z"/>
<path style="fill:#6e534d; stroke:none;" d="M140 229L141 230L140 229M142 230L143 231L142 230M184 230L184 231L189 231L184 230M352 230L353 231L352 230z"/>
<path style="fill:#cba799; stroke:none;" d="M118 231L117 232L117 233L117 234L120 231L118 231z"/>
<path style="fill:#6e534d; stroke:none;" d="M144.667 231.333L145.333 231.667L144.667 231.333M160 231L160 232L182 232L160 231M351 231L352 232L351 231z"/>
<path style="fill:#a85c30; stroke:none;" d="M539.667 231.333L540.333 231.667L539.667 231.333z"/>
<path style="fill:#6e534d; stroke:none;" d="M149 232L149 233L154 233L149 232M350 232L351 233L350 232M452 232L452 237L453 237L452 232M536 232L536 235L537 235L536 232M348 233L347 235L349 235L348 233M346 235L347 236L346 235z"/>
<path style="fill:#cba799; stroke:none;" d="M116 236L118 240L118 236L116 236z"/>
<path style="fill:#6e534d; stroke:none;" d="M345 236L346 237L345 236M528 236L528 240L530 240L530 236L528 236M344 237L345 238L344 237M343 238L344 239L343 238M534 238L532 244L534 244L536 238L534 238M342 239L343 240L342 239M365 239L366 240L365 239M540 239L543 245L542 239L540 239M341 240L342 241L341 240M339.667 241.333L340.333 241.667L339.667 241.333M338 242L339 243L338 242M337 243L338 244L337 243z"/>
<path style="fill:#cba799; stroke:none;" d="M114 244L113 247L116 245L114 244z"/>
<path style="fill:#6e534d; stroke:none;" d="M336 244L337 245L336 244M335 245L336 246L335 245M359 245L360 246L359 245M332 248L335 246L332 248M541 246L544 250L541 246M331 248L330 250L332 250L331 248M328 250L328 252L330 250L328 250M204.667 251.333L205.333 251.667L204.667 251.333M205 268L205 267C196.661 264.516 193.755 257.926 202 253C191.384 251.579 195.102 266.977 205 268z"/>
<path style="fill:#0c0604; stroke:none;" d="M231 270C228.205 279.177 218.688 288.37 218.384 298C218.079 307.663 227.544 307.489 232.79 301.906C240.012 294.22 254.023 272.994 252.812 262.015C252.203 256.496 246.509 255.844 242 255.286C230.75 253.895 219.296 253.092 208 252.174C203.913 251.841 198.313 252.807 196.619 257.185C194.778 261.943 199.021 265.48 203.004 266.891C211.289 269.827 222.272 269.82 231 270z"/>
<path style="fill:#6e534d; stroke:none;" d="M210 252L210 253L218 253L210 252M324 255L328 252L324 255M452 252L452 256L453 256L452 252M222 253L222 254L231 254L222 253z"/>
<path style="fill:#cba799; stroke:none;" d="M110 254L109 262L112 262L112 254L110 254z"/>
<path style="fill:#6e534d; stroke:none;" d="M232 254L232 255L240 255L232 254z"/>
<path style="fill:#cba799; stroke:none;" d="M349 254C339.846 257.876 332.714 266.845 325 272.996C319.012 277.771 312.815 282.295 307 287.285C302.761 290.923 293.025 296.601 291.241 302.093C289.15 308.53 302.428 318.759 308.039 318.905C321.962 319.266 340.865 300.069 349.91 290.975C353.696 287.169 358.292 282.623 358.853 277C359.657 268.94 352.935 260.536 349 254z"/>
<path style="fill:#6e534d; stroke:none;" d="M243 255L243 256L248 256L243 255M323 255L324 256L323 255z"/>
<path style="fill:#a85c30; stroke:none;" d="M349 255L350 256L349 255z"/>
<path style="fill:#6e534d; stroke:none;" d="M249.667 256.333L250.333 256.667L249.667 256.333M317 261L323 256L317 261z"/>
<path style="fill:#a85c30; stroke:none;" d="M344 256L345 257L344 256M350 256L351 257L350 256z"/>
<path style="fill:#0c0604; stroke:none;" d="M352 256L353 259L354 259L355 256L352 256M357 256L358 257L357 256z"/>
<path style="fill:#6e534d; stroke:none;" d="M251 257L252 258L251 257z"/>
<path style="fill:#a85c30; stroke:none;" d="M351 257L352 258L351 257z"/>
<path style="fill:#6e534d; stroke:none;" d="M252 258L253 259L252 258M341 258L342 259L341 258M253 259L253 266L254 266L253 259M340 259L341 260L340 259z"/>
<path style="fill:#a85c30; stroke:none;" d="M352 259L353 260L352 259z"/>
<path style="fill:#6e534d; stroke:none;" d="M451 259L451 264L452 264L451 259M339 260L340 261L339 260z"/>
<path style="fill:#a85c30; stroke:none;" d="M353 260L354 261L353 260z"/>
<path style="fill:#6e534d; stroke:none;" d="M316 261L317 262L316 261z"/>
<path style="fill:#a85c30; stroke:none;" d="M338 261L339 262L338 261z"/>
<path style="fill:#d99a59; stroke:none;" d="M353 261L354 262L353 261z"/>
<path style="fill:#6e534d; stroke:none;" d="M314 262L314 264L316 262L314 262z"/>
<path style="fill:#a85c30; stroke:none;" d="M354 262L355 263L354 262z"/>
<path style="fill:#d99a59; stroke:none;" d="M336 263L337 264L336 263M354 263L355 264L354 263z"/>
<path style="fill:#0c0604; stroke:none;" d="M358 263L359 264L358 263z"/>
<path style="fill:#6e534d; stroke:none;" d="M313 264L314 265L313 264M334 264L335 265L334 264z"/>
<path style="fill:#d99a59; stroke:none;" d="M335 264L336 265L335 264z"/>
<path style="fill:#a85c30; stroke:none;" d="M355 264L356 265L355 264z"/>
<path style="fill:#6e534d; stroke:none;" d="M312 265L313 266L312 265M333 265L334 266L333 265z"/>
<path style="fill:#d99a59; stroke:none;" d="M355 265L356 266L355 265z"/>
<path style="fill:#6e534d; stroke:none;" d="M252.333 266.667L252.667 267.333L252.333 266.667M310.667 266.333L311.333 266.667L310.667 266.333M332 266L333 267L332 266z"/>
<path style="fill:#a85c30; stroke:none;" d="M356 266L357 267L356 266z"/>
<path style="fill:#6e534d; stroke:none;" d="M450 266L450 269L451 269L450 266M309 267L310 268L309 267M331 267L332 268L331 267z"/>
<path style="fill:#d99a59; stroke:none;" d="M356 267L357 268L356 267z"/>
<path style="fill:#6e534d; stroke:none;" d="M544 267L545 268L544 267M206 268L206 269L212 269L206 268M308 268L309 269L308 268M330 268L331 269L330 268z"/>
<path style="fill:#a85c30; stroke:none;" d="M357 268L358 269L357 268z"/>
<path style="fill:#6e534d; stroke:none;" d="M212 269L212 270L225 270L212 269M251.333 269.667L251.667 270.333L251.333 269.667M307 269L308 270L307 269M328 269L327 271L328 269z"/>
<path style="fill:#a85c30; stroke:none;" d="M329 269L330 270L329 269z"/>
<path style="fill:#6e534d; stroke:none;" d="M544 269L545 270L544 269M227 270L227 271L228 277L229 277L231 270L227 270M306 270L307 271L306 270z"/>
<path style="fill:#a85c30; stroke:none;" d="M328 270L329 271L328 270M358 270L359 271L358 270z"/>
<path style="fill:#6e534d; stroke:none;" d="M449.333 270.667L449.667 271.333L449.333 270.667z"/>
<path style="fill:#d99a59; stroke:none;" d="M545.667 270.333L546.333 270.667L545.667 270.333z"/>
<path style="fill:#6e534d; stroke:none;" d="M304.667 271.333L305.333 271.667L304.667 271.333M326 271L327 272L326 271z"/>
<path style="fill:#d99a59; stroke:none;" d="M358 271L359 272L358 271z"/>
<path style="fill:#6e534d; stroke:none;" d="M511 338L512 338L509 321L512 328L516 327L516 328L514 329L518 331L517 334C521.473 335.601 532.533 341.792 536 338L537 338L538 338L547 340L547 339L541 338L541 337L550 337L552 333L553 336L567 336L568 336L568 339L569 339C572.52 328.441 568.802 311.594 572 302C573.537 297.39 580.787 290.37 585 287C587.934 284.653 594.044 282.822 593 287L594 287C594.105 282.035 588.293 278.276 584 276.693C573.35 272.766 560.224 273.277 549 272.015C543.412 271.386 534.42 270.687 529.286 273.279C508.135 283.958 503.436 318.359 511 338z"/>
<path style="fill:#cba799; stroke:none;" d="M546 271L547 272L546 271z"/>
<path style="fill:#a85c30; stroke:none;" d="M547 271L548 272L547 271z"/>
<path style="fill:#6e534d; stroke:none;" d="M250 272L251 273L250 272M303 272L304 273L303 272M325 272L326 273L325 272z"/>
<path style="fill:#a85c30; stroke:none;" d="M359 272L359 279L360 279L359 272z"/>
<path style="fill:#6e534d; stroke:none;" d="M249 273L249 276L250 276L249 273M300 275L303 273L300 275M324 273L325 274L324 273M322 274L323 275L322 274z"/>
<path style="fill:#a85c30; stroke:none;" d="M323 274L324 275L323 274z"/>
<path style="fill:#6e534d; stroke:none;" d="M448.333 274.667L448.667 275.333L448.333 274.667M299 275L300 276L299 275M321 275L322 276L321 275M248 276L249 277L248 276M298 276L299 277L298 276z"/>
<path style="fill:#a85c30; stroke:none;" d="M320 276L321 277L320 276M580 276L581 277L580 276z"/>
<path style="fill:#6e534d; stroke:none;" d="M247 277L246 280L247 277M297 277L298 278L297 277M318 277L319 278L318 277z"/>
<path style="fill:#a85c30; stroke:none;" d="M319 277L320 278L319 277z"/>
<path style="fill:#6e534d; stroke:none;" d="M226 278L225 282L226 282L228 278L226 278M294 280L297 278L294 280M317 278L318 279L317 278M447.333 278.667L447.667 279.333L447.333 278.667z"/>
<path style="fill:#a85c30; stroke:none;" d="M586 278L587 279L586 278z"/>
<path style="fill:#6e534d; stroke:none;" d="M316 279L317 280L316 279M293 280L294 281L293 280M314 280L313 282L314 280z"/>
<path style="fill:#a85c30; stroke:none;" d="M315 280L316 281L315 280M358 280L357 283L358 280z"/>
<path style="fill:#6e534d; stroke:none;" d="M245 281L246 282L245 281M292 281L293 282L292 281z"/>
<path style="fill:#a85c30; stroke:none;" d="M314 281L315 282L314 281z"/>
<path style="fill:#d99a59; stroke:none;" d="M357 281L358 282L357 281z"/>
<path style="fill:#6e534d; stroke:none;" d="M224.333 282.667L224.667 283.333L224.333 282.667M291 282L292 283L291 282M312 282L313 283L312 282M446 282L447 283L446 282M244 283L245 284L244 283M290 283L291 284L290 283M308 286L312 284L308 286z"/>
<path style="fill:#d99a59; stroke:none;" d="M356 283L357 284L356 283z"/>
<path style="fill:#cba799; stroke:none;" d="M106 284L105 288L108 284L106 284z"/>
<path style="fill:#6e534d; stroke:none;" d="M243.333 284.667L243.667 285.333L243.333 284.667M288 284L288 286L290 284L288 284z"/>
<path style="fill:#a85c30; stroke:none;" d="M310 284L311 285L310 284M356 284L357 285L356 284z"/>
<path style="fill:#6e534d; stroke:none;" d="M445.333 284.667L445.667 285.333L445.333 284.667M223 285L222 288L223 285z"/>
<path style="fill:#a85c30; stroke:none;" d="M309 285L310 286L309 285M355 285L356 286L355 285M593 285L594 286L593 285z"/>
<path style="fill:#6e534d; stroke:none;" d="M242.333 286.667L242.667 287.333L242.333 286.667M286 286L286 288L288 286L286 286M307 286L308 287L307 286z"/>
<path style="fill:#d99a59; stroke:none;" d="M353 286L354 287L353 286z"/>
<path style="fill:#a85c30; stroke:none;" d="M354 286L355 287L354 286z"/>
<path style="fill:#6e534d; stroke:none;" d="M444.333 286.667L444.667 287.333L444.333 286.667M589 286L589 287L592 287L589 286M306 287L307 288L306 287z"/>
<path style="fill:#a85c30; stroke:none;" d="M353 287L354 288L353 287z"/>
<path style="fill:#6e534d; stroke:none;" d="M592 287L593 288L592 287M221 288L220 291L221 288M241 288L240 291L241 288M284 288L285 289L284 288z"/>
<path style="fill:#a85c30; stroke:none;" d="M305 288L306 289L305 288M352 288L353 289L352 288z"/>
<path style="fill:#6e534d; stroke:none;" d="M283 289L284 290L283 289M304 289L305 290L304 289z"/>
<path style="fill:#d99a59; stroke:none;" d="M351 289L352 290L351 289z"/>
<path style="fill:#6e534d; stroke:none;" d="M443.333 289.667L443.667 290.333L443.333 289.667M282 290L283 291L282 290M302 290L300 293L302 290z"/>
<path style="fill:#a85c30; stroke:none;" d="M303 290L304 291L303 290M350 290L351 291L350 290z"/>
<path style="fill:#6e534d; stroke:none;" d="M281 291L282 292L281 291z"/>
<path style="fill:#a85c30; stroke:none;" d="M302 291L303 292L302 291M349 291L350 292L349 291z"/>
<path style="fill:#6e534d; stroke:none;" d="M219.333 292.667L219.667 293.333L219.333 292.667M239 292L238 295L239 292M280 292L281 293L280 292z"/>
<path style="fill:#a85c30; stroke:none;" d="M301 292L302 293L301 292M348 292L349 293L348 292z"/>
<path style="fill:#6e534d; stroke:none;" d="M442 292L443 293L442 292M276 296L280 293L276 296M299 293L300 294L299 293z"/>
<path style="fill:#a85c30; stroke:none;" d="M347 293L348 294L347 293z"/>
<path style="fill:#6e534d; stroke:none;" d="M218.333 294.667L218.667 295.333L218.333 294.667M298 294L299 295L298 294z"/>
<path style="fill:#a85c30; stroke:none;" d="M346 294L347 295L346 294z"/>
<path style="fill:#6e534d; stroke:none;" d="M441 294L442 295L441 294M237 295L238 296L237 295M297 295L298 296L297 295z"/>
<path style="fill:#d99a59; stroke:none;" d="M344 295L345 296L344 295z"/>
<path style="fill:#a85c30; stroke:none;" d="M345 295L346 296L345 295z"/>
<path style="fill:#6e534d; stroke:none;" d="M440 295L440 298L441 298L440 295M236.333 296.667L236.667 297.333L236.333 296.667M275 296L276 297L275 296M295 296L296 297L295 296z"/>
<path style="fill:#a85c30; stroke:none;" d="M296 296L297 297L296 296z"/>
<path style="fill:#d99a59; stroke:none;" d="M343 296L344 297L343 296z"/>
<path style="fill:#6e534d; stroke:none;" d="M274 297L275 298L274 297M294 297L293 299L294 297z"/>
<path style="fill:#d99a59; stroke:none;" d="M342 297L343 298L342 297z"/>
<path style="fill:#6e534d; stroke:none;" d="M235.333 298.667L235.667 299.333L235.333 298.667M272 298L272 300L274 298L272 298z"/>
<path style="fill:#d99a59; stroke:none;" d="M294 298L295 299L294 298z"/>
<path style="fill:#a85c30; stroke:none;" d="M341 298L342 299L341 298z"/>
<path style="fill:#6e534d; stroke:none;" d="M439 298L436 304L439 298M292 299L293 300L292 299z"/>
<path style="fill:#d99a59; stroke:none;" d="M339 299L340 300L339 299z"/>
<path style="fill:#a85c30; stroke:none;" d="M340 299L341 300L340 299z"/>
<path style="fill:#6e534d; stroke:none;" d="M218 300L218 303L219 303L218 300M234 300L235 301L234 300M270 300L271 301L270 300M291 300L292 301L291 300z"/>
<path style="fill:#d99a59; stroke:none;" d="M338 300L339 301L338 300z"/>
<path style="fill:#6e534d; stroke:none;" d="M595 300L596 301L595 300M233 301L232 303L234 303L233 301M269 301L270 302L269 301M289.667 301.333L290.333 301.667L289.667 301.333z"/>
<path style="fill:#d99a59; stroke:none;" d="M337 301L338 302L337 301z"/>
<path style="fill:#6e534d; stroke:none;" d="M268 302L269 303L268 302z"/>
<path style="fill:#a85c30; stroke:none;" d="M289 302L290 303L289 302z"/>
<path style="fill:#d99a59; stroke:none;" d="M336 302L337 303L336 302z"/>
<path style="fill:#0c0604; stroke:none;" d="M338 302L339 303L338 302z"/>
<path style="fill:#6e534d; stroke:none;" d="M231 303L232 304L231 303M266.667 303.333L267.333 303.667L266.667 303.333z"/>
<path style="fill:#d99a59; stroke:none;" d="M289 303L290 304L289 303z"/>
<path style="fill:#a85c30; stroke:none;" d="M335 303L336 304L335 303z"/>
<path style="fill:#6e534d; stroke:none;" d="M594 303L594 313C598.107 310.337 597.187 306.122 594 303M219 304L220 305L219 304M230 304L231 305L230 304M265 304L264 306L266 306L265 304z"/>
<path style="fill:#d99a59; stroke:none;" d="M290 304L291 305L290 304z"/>
<path style="fill:#a85c30; stroke:none;" d="M334 304L335 305L334 304z"/>
<path style="fill:#6e534d; stroke:none;" d="M220 305L221 306L220 305M228.667 305.333L229.333 305.667L228.667 305.333z"/>
<path style="fill:#d99a59; stroke:none;" d="M332 305L333 306L332 305z"/>
<path style="fill:#6e534d; stroke:none;" d="M435 305L434 308L435 305M221 306L221 307L227 308L221 306M227 306L228 307L227 306M262 306L262 308L264 306L262 306z"/>
<path style="fill:#a85c30; stroke:none;" d="M291 306L292 307L291 306z"/>
<path style="fill:#d99a59; stroke:none;" d="M331 306L332 307L331 306z"/>
<path style="fill:#0c0604; stroke:none;" d="M290 307L290 312L291 312L290 307z"/>
<path style="fill:#d99a59; stroke:none;" d="M292 307L293 308L292 307M330 307L331 308L330 307z"/>
<path style="fill:#6e534d; stroke:none;" d="M593 307L594 308L593 307M260.667 308.333L261.333 308.667L260.667 308.333z"/>
<path style="fill:#a85c30; stroke:none;" d="M293 308L294 309L293 308M329 308L330 309L329 308z"/>
<path style="fill:#6e534d; stroke:none;" d="M433.333 308.667L433.667 309.333L433.333 308.667M259 309L260 310L259 309z"/>
<path style="fill:#0c0604; stroke:none;" d="M285 309L286 310L285 309z"/>
<path style="fill:#a85c30; stroke:none;" d="M327.667 309.333L328.333 309.667L327.667 309.333z"/>
<path style="fill:#6e534d; stroke:none;" d="M258 310L259 311L258 310z"/>
<path style="fill:#d99a59; stroke:none;" d="M295 310L296 311L295 310z"/>
<path style="fill:#a85c30; stroke:none;" d="M326 310L327 311L326 310z"/>
<path style="fill:#6e534d; stroke:none;" d="M432 310L433 311L432 310M593 310L594 311L593 310M257 311L258 312L257 311z"/>
<path style="fill:#0c0604; stroke:none;" d="M282 311L285 313L282 311M288 311L289 312L288 311M293 311L294 312L293 311z"/>
<path style="fill:#a85c30; stroke:none;" d="M295 311L296 312L295 311z"/>
<path style="fill:#d99a59; stroke:none;" d="M324 311L325 312L324 311z"/>
<path style="fill:#a85c30; stroke:none;" d="M323 312L324 313L323 312z"/>
<path style="fill:#6e534d; stroke:none;" d="M431 312L432 313L431 312M592 312L593 313L592 312M250 317L256 314L250 317z"/>
<path style="fill:#a85c30; stroke:none;" d="M297 313L298 314L297 313z"/>
<path style="fill:#d99a59; stroke:none;" d="M320 313L321 314L320 313z"/>
<path style="fill:#a85c30; stroke:none;" d="M321 313L322 314L321 313z"/>
<path style="fill:#6e534d; stroke:none;" d="M430 313L431 314L430 313z"/>
<path style="fill:#d99a59; stroke:none;" d="M299 314L300 315L299 314z"/>
<path style="fill:#6e534d; stroke:none;" d="M429.333 314.667L429.667 315.333L429.333 314.667z"/>
<path style="fill:#a85c30; stroke:none;" d="M300 315L301 316L300 315M318 315L319 316L318 315z"/>
<path style="fill:#6e534d; stroke:none;" d="M506 315L507 316L506 315M593 315L594 316L593 315z"/>
<path style="fill:#d99a59; stroke:none;" d="M301 316L302 317L301 316z"/>
<path style="fill:#a85c30; stroke:none;" d="M316.667 316.333L317.333 316.667L316.667 316.333z"/>
<path style="fill:#6e534d; stroke:none;" d="M428 316L429 317L428 316M249 317L250 318L249 317z"/>
<path style="fill:#a85c30; stroke:none;" d="M302 317L303 318L302 317z"/>
<path style="fill:#d99a59; stroke:none;" d="M303 317L304 318L303 317z"/>
<path style="fill:#a85c30; stroke:none;" d="M315 317L316 318L315 317z"/>
<path style="fill:#6e534d; stroke:none;" d="M427 317L426 320L427 317z"/>
<path style="fill:#0c0604; stroke:none;" d="M510 317L510 320L511 320L510 317z"/>
<path style="fill:#6e534d; stroke:none;" d="M248 318L249 319L248 318z"/>
<path style="fill:#a85c30; stroke:none;" d="M312 318L313 319L312 318z"/>
<path style="fill:#6e534d; stroke:none;" d="M592.667 318.333L593.333 318.667L592.667 318.333M246.667 319.333L247.333 319.667L246.667 319.333z"/>
<path style="fill:#0c0604; stroke:none;" d="M272 319L273 320L272 319z"/>
<path style="fill:#6e534d; stroke:none;" d="M245 320L246 321L245 320M425 320L426 321L425 320M593 320L592 326L593 326L595 320L593 320M244 321L245 322L244 321M424 321L425 322L424 321M243 322L244 323L243 322M241.667 323.333L242.333 323.667L241.667 323.333z"/>
<path style="fill:#0c0604; stroke:none;" d="M268 323L271 325L268 323z"/>
<path style="fill:#6e534d; stroke:none;" d="M423 323L424 324L423 323M240 324L241 325L240 324M422 324L421 327L422 324M239 325L240 326L239 325M237.667 326.333L238.333 326.667L237.667 326.333M236 327L237 328L236 327M420 327L421 328L420 327M232 331L236 328L232 331M419 328L418 330L420 330L419 328M590 328L591 329L590 328z"/>
<path style="fill:#0c0604; stroke:none;" d="M260.333 329.667L260.667 330.333L260.333 329.667z"/>
<path style="fill:#6e534d; stroke:none;" d="M587.333 329.667L587.667 330.333L587.333 329.667M417 330L416 333L417 330M231 331L232 332L231 331M590 331L589 334L590 331M230 332L231 333L230 332z"/>
<path style="fill:#0c0604; stroke:none;" d="M256.333 332.667L256.667 333.333L256.333 332.667M563 335L568 334C565.587 332.338 564.608 332.556 563 335z"/>
<path style="fill:#cba799; stroke:none;" d="M105 333L108 335L105 333z"/>
<path style="fill:#6e534d; stroke:none;" d="M229 333L230 334L229 333M415 333L413 336L415 333M227.667 334.333L228.333 334.667L227.667 334.333M587 334L588 335L587 334M75 395L75 397L79 397C83.7324 392.789 99.2255 393.305 105 395L110 392L111 395L112 395L112 391L113 391L114 394C117.827 392.769 119.232 393.122 122 396L116.814 379L108 350L107 350L107 355L106 355L107 344L100 344L100 343L106 343L106 335C91.1609 338.392 72.5193 340.705 65.8573 357.015C62.42 365.429 62.0304 395.197 75 395M226 335L227 336L226 335z"/>
<path style="fill:#0c0604; stroke:none;" d="M253 335L254 336L253 335z"/>
<path style="fill:#d99a59; stroke:none;" d="M415 335L416 336L415 335z"/>
<path style="fill:#0c0604; stroke:none;" d="M539.667 335.333L540.333 335.667L539.667 335.333z"/>
<path style="fill:#a85c30; stroke:none;" d="M105 336L106 343L100 343L100 344L107 344L106 355L107 355L107 350L108 350L108 352L109 352L105 336z"/>
<path style="fill:#6e534d; stroke:none;" d="M224 336L224 338L226 336L224 336M412 336L413 337L412 336M513 336L514 337L513 336z"/>
<path style="fill:#0c0604; stroke:none;" d="M535 336L536 337L535 336z"/>
<path style="fill:#6e534d; stroke:none;" d="M554 336L553 339L554 336M561 336L561 338L563 338L563 336L561 336M581 336L582 337L581 336M583 337L587 338L583 337M411 337L410 340L411 337M558.333 337.667L558.667 338.333L558.333 337.667M578 337L579 338L578 337z"/>
<path style="fill:#0c0604; stroke:none;" d="M584 337L585 338L584 337z"/>
<path style="fill:#a85c30; stroke:none;" d="M93 338L94 339L93 338z"/>
<path style="fill:#6e534d; stroke:none;" d="M222.667 338.333L223.333 338.667L222.667 338.333M512 338L513 342L514 342L512 338M221 339L222 340L221 339M550.667 339.333L551.333 339.667L550.667 339.333M577 340L577 341L581 340L577 340z"/>
<path style="fill:#a85c30; stroke:none;" d="M92 340L93 343L84 346L96 343L96 340L92 340z"/>
<path style="fill:#6e534d; stroke:none;" d="M220 340L221 341L220 340M409 340L410 341L409 340z"/>
<path style="fill:#a85c30; stroke:none;" d="M90 341L91 342L90 341M102.667 341.333L103.333 341.667L102.667 341.333z"/>
<path style="fill:#6e534d; stroke:none;" d="M219 341L220 342L219 341M408 341L409 342L408 341M580 341L581 342L580 341M216 344L219 342L216 344M407 342L408 343L407 342M514.333 342.667L514.667 343.333L514.333 342.667M555 342L556 343L555 342M564 342L563 343L566 345L556 344L557 347L553 348L553 349C560.716 348.356 573.18 349.159 578 342L568 346L568 343L564 342M406 343L407 344L406 343z"/>
<path style="fill:#a85c30; stroke:none;" d="M96 344L96 348L92 348L92 350L100 344L96 344z"/>
<path style="fill:#6e534d; stroke:none;" d="M215 344L216 345L215 344M405 344L406 345L405 344M515 344L515 346L517 346L515 344M521.333 344.667L521.667 345.333L521.333 344.667M527 344L528 345L527 344M531 345L531 346L535 348L536 348L536 345L537 345L539 348L539 344L531 345M540 344L540 348L541 348L540 344M542 344L543 345L542 344M549 344L551 348L549 344M551 344L552 345L551 344M553 344L554 345L553 344M559.667 344.333L560.333 344.667L559.667 344.333z"/>
<path style="fill:#a85c30; stroke:none;" d="M105 345L106 346L105 345z"/>
<path style="fill:#6e534d; stroke:none;" d="M214 345L215 346L214 345M404 345L405 346L404 345M546.333 345.667L546.667 346.333L546.333 345.667z"/>
<path style="fill:#a85c30; stroke:none;" d="M78 346L79 352L84 352L84 350L80 346L78 346z"/>
<path style="fill:#6e534d; stroke:none;" d="M213 346L214 347L213 346M403 346L404 347L403 346M517 346L520 351L525 347L517 346M526.333 346.667L526.667 347.333L526.333 346.667M543 346L545 348L543 346M552 346L553 347L552 346M212 347L213 348L212 347M402 347L403 348L402 347M529 347L530 348L529 347M532 347L532 349L534 349L534 347L532 347z"/>
<path style="fill:#a85c30; stroke:none;" d="M561 347L562 348L561 347M563 347L564 348L563 347M76.3333 348.667L76.6667 349.333L76.3333 348.667z"/>
<path style="fill:#6e534d; stroke:none;" d="M209 350L212 348L209 350z"/>
<path style="fill:#0c0604; stroke:none;" d="M239 348L240 349L239 348z"/>
<path style="fill:#6e534d; stroke:none;" d="M401 348L402 349L401 348z"/>
<path style="fill:#a85c30; stroke:none;" d="M70 349L71 350L70 349z"/>
<path style="fill:#6e534d; stroke:none;" d="M400 349L401 350L400 349z"/>
<path style="fill:#d99a59; stroke:none;" d="M69 350L70 351L69 350z"/>
<path style="fill:#cba799; stroke:none;" d="M70 350L71 351L70 350z"/>
<path style="fill:#a85c30; stroke:none;" d="M74 350L75 351L74 350z"/>
<path style="fill:#6e534d; stroke:none;" d="M208 350L209 351L208 350z"/>
<path style="fill:#a85c30; stroke:none;" d="M69.6667 351.333L70.3333 351.667L69.6667 351.333z"/>
<path style="fill:#6e534d; stroke:none;" d="M207 351L208 352L207 351M398 351L398 353L400 351L398 351z"/>
<path style="fill:#a85c30; stroke:none;" d="M96 352L96 354L100 354L100 352L96 352M109 352L110 360L111 360L109 352z"/>
<path style="fill:#6e534d; stroke:none;" d="M206 352L207 353L206 352M203 356L206 353L203 356M396 353L397 354L396 353z"/>
<path style="fill:#a85c30; stroke:none;" d="M68 354L69 355L68 354z"/>
<path style="fill:#6e534d; stroke:none;" d="M395 354L394 356L396 356L395 354z"/>
<path style="fill:#a85c30; stroke:none;" d="M70 355L72 357L70 355M104 355L105 356L104 355z"/>
<path style="fill:#6e534d; stroke:none;" d="M516 355L517 358L516 355M202 356L203 357L202 356z"/>
<path style="fill:#0c0604; stroke:none;" d="M227 358L230 356L227 358z"/>
<path style="fill:#6e534d; stroke:none;" d="M393 356L394 357L393 356z"/>
<path style="fill:#cba799; stroke:none;" d="M66 357L67 358L66 357z"/>
<path style="fill:#6e534d; stroke:none;" d="M201 357L200 360L201 357M392 357L393 358L392 357z"/>
<path style="fill:#a85c30; stroke:none;" d="M70 358L72 362L70 358z"/>
<path style="fill:#6e534d; stroke:none;" d="M391 358L392 359L391 358M514 358L514 360L516 360L514 358M390 359L391 360L390 359M389 360L390 361L389 360M512 360L512 362L514 360L512 360z"/>
<path style="fill:#a85c30; stroke:none;" d="M111.333 361.667L111.667 362.333L111.333 361.667z"/>
<path style="fill:#6e534d; stroke:none;" d="M386 363L389 361L386 363z"/>
<path style="fill:#d99a59; stroke:none;" d="M513.667 361.333L514.333 361.667L513.667 361.333z"/>
<path style="fill:#cba799; stroke:none;" d="M513 362L512 366L513 366L515 362L513 362z"/>
<path style="fill:#a85c30; stroke:none;" d="M69 363L72 366L69 363z"/>
<path style="fill:#6e534d; stroke:none;" d="M385 363L386 364L385 363M510 363L511 364L510 363z"/>
<path style="fill:#d99a59; stroke:none;" d="M511.333 364.667L511.667 365.333L511.333 364.667z"/>
<path style="fill:#a85c30; stroke:none;" d="M112.333 365.667L112.667 366.333L112.333 365.667z"/>
<path style="fill:#6e534d; stroke:none;" d="M200 365L201 370L202 370L200 365M382.667 365.333L383.333 365.667L382.667 365.333M381 366L382 367L381 366z"/>
<path style="fill:#a85c30; stroke:none;" d="M69 367L68 378L69 378L72 367L69 367z"/>
<path style="fill:#6e534d; stroke:none;" d="M380 367L381 368L380 367M379 368L380 369L379 368M377.667 369.333L378.333 369.667L377.667 369.333M202.333 370.667L202.667 371.333L202.333 370.667M376 370L377 371L376 370M375 371L376 372L375 371M203 372L204 373L203 372M374 372L375 373L374 372M204 373L206 376L204 373M372.667 373.333L373.333 373.667L372.667 373.333M371 374L372 375L371 374M370 375L371 376L370 375M206 376L208 378L208 376L206 376M368 376L369 377L368 376M366.667 377.333L367.333 377.667L366.667 377.333z"/>
<path style="fill:#a85c30; stroke:none;" d="M70.3333 378.667L70.6667 379.333L70.3333 378.667z"/>
<path style="fill:#6e534d; stroke:none;" d="M208 378L211 380L208 378M365 378L366 379L365 378M363.667 379.333L364.333 379.667L363.667 379.333M211 380L212 381L211 380M362 380L363 381L362 380M212 381L213 382L212 381M360.667 381.333L361.333 381.667L360.667 381.333M213 382L216 384L213 382M358.667 382.333L359.333 382.667L358.667 382.333z"/>
<path style="fill:#a85c30; stroke:none;" d="M68 383L69 384L68 383z"/>
<path style="fill:#6e534d; stroke:none;" d="M357 383L358 384L357 383M217 384L218 385L217 384M355 384L356 385L355 384M218 385L219 386L218 385M353.667 385.333L354.333 385.667L353.667 385.333M219 386L222 388L219 386M350 388L353 386L350 388M222.667 388.333L223.333 388.667L222.667 388.333M348 388L349 389L348 388M224 389L227 391L224 389M346.667 389.333L347.333 389.667L346.667 389.333z"/>
<path style="fill:#0c0604; stroke:none;" d="M70.3333 390.667L70.6667 391.333L70.3333 390.667z"/>
<path style="fill:#6e534d; stroke:none;" d="M344.667 390.333L345.333 390.667L344.667 390.333z"/>
<path style="fill:#0c0604; stroke:none;" d="M115 391L116 392L115 391z"/>
<path style="fill:#6e534d; stroke:none;" d="M227.667 391.333L228.333 391.667L227.667 391.333M342.667 391.333L343.333 391.667L342.667 391.333z"/>
<path style="fill:#0c0604; stroke:none;" d="M76 392L79 395L76 392M79 392L80 393L79 392z"/>
<path style="fill:#6e534d; stroke:none;" d="M229.667 392.333L230.333 392.667L229.667 392.333M340.667 392.333L341.333 392.667L340.667 392.333M487 392L489 394L489 392L487 392z"/>
<path style="fill:#0c0604; stroke:none;" d="M71 393L72 394L71 393z"/>
<path style="fill:#6e534d; stroke:none;" d="M231.667 393.333L232.333 393.667L231.667 393.333M338.667 393.333L339.333 393.667L338.667 393.333z"/>
<path style="fill:#0c0604; stroke:none;" d="M75 394L76 395L75 394z"/>
<path style="fill:#6e534d; stroke:none;" d="M233.667 394.333L234.333 394.667L233.667 394.333M336.667 394.333L337.333 394.667L336.667 394.333M486 394L482 399L486 394M235.667 395.333L236.333 395.667L235.667 395.333M334.667 395.333L335.333 395.667L334.667 395.333M123 396L124 397L123 396M237 396L237 397L240 397L237 396M332.667 396.333L333.333 396.667L332.667 396.333M240.667 397.333L241.333 397.667L240.667 397.333M330.667 397.333L331.333 397.667L330.667 397.333M124 398L125 399L124 398M242.667 398.333L243.333 398.667L242.667 398.333M328.667 398.333L329.333 398.667L328.667 398.333M244.667 399.333L245.333 399.667L244.667 399.333M325.667 399.333L326.333 399.667L325.667 399.333z"/>
<path style="fill:#cba799; stroke:none;" d="M483 399L481 403L483 399z"/>
<path style="fill:#d99a59; stroke:none;" d="M484 399L485 400L484 399z"/>
<path style="fill:#6e534d; stroke:none;" d="M125 400L127 403L125 400M248 400L249 401L248 400M321.667 400.333L322.333 400.667L321.667 400.333M480 400L480 402L482 400L480 400M83 401L84 402L83 401M250 401L251 402L250 401M318.667 401.333L319.333 401.667L318.667 401.333M253.667 402.333L254.333 402.667L253.667 402.333M314 402L314 403L317 403L314 402M476 405L479 402L476 405M127.333 403.667L127.667 404.333L127.333 403.667M256 403L256 404L260 404L256 403M310 403L310 404L314 404L310 403M86 404L87 405L86 404M262 404L262 405L265 405L262 404M304 404L304 405L309 405L304 404M84 405L85 406L84 405M128.333 405.667L128.667 406.333L128.333 405.667M268 405L268 406L274 406L268 405M296 405L296 406L304 406L296 405M477 405L478 406L477 405M86 406L87 407L86 406M474 406L475 407L474 406M129.333 407.667L129.667 408.333L129.333 407.667M472 408L473 409L472 408z"/>
<path style="fill:#d99a59; stroke:none;" d="M473 408L474 409L473 408z"/>
<path style="fill:#6e534d; stroke:none;" d="M92.3333 409.667L92.6667 410.333L92.3333 409.667M130 409L129 413L133 412L130 409z"/>
<path style="fill:#d99a59; stroke:none;" d="M472 409L473 410L472 409z"/>
<path style="fill:#6e534d; stroke:none;" d="M128 410L127 412L129 412L128 410M470 410L466 412L466 413L466 414L470 410M107 411L107 413L109 411L107 411M114 411L114 412L119 412L119 411L114 411M123.333 411.667L123.667 412.333L123.333 411.667z"/>
<path style="fill:#cba799; stroke:none;" d="M131 412L131 414L133 414L131 412z"/>
<path style="fill:#d99a59; stroke:none;" d="M132 412L133 413L132 412M469 412L470 413L469 412z"/>
<path style="fill:#cba799; stroke:none;" d="M468 413L469 414L468 413z"/>
<path style="fill:#d99a59; stroke:none;" d="M132 414L133 415L132 414z"/>
<path style="fill:#6e534d; stroke:none;" d="M464 416L465 417L464 416M460 418L458 422L462 418L460 418z"/>
<path style="fill:#d99a59; stroke:none;" d="M137 421L138 422L137 421z"/>
<path style="fill:#cba799; stroke:none;" d="M137 422L139 425L139 422L137 422z"/>
<path style="fill:#6e534d; stroke:none;" d="M457 422L454 425L457 422z"/>
<path style="fill:#d99a59; stroke:none;" d="M139.333 423.667L139.667 424.333L139.333 423.667z"/>
<path style="fill:#6e534d; stroke:none;" d="M452 426L449 428L449 429L454 426L452 426z"/>
<path style="fill:#cba799; stroke:none;" d="M141 428L144 430L141 428z"/>
<path style="fill:#6e534d; stroke:none;" d="M143 428L144 429L143 428M448 429L449 430L448 429M445 432L444 434L445 432z"/>
<path style="fill:#d99a59; stroke:none;" d="M146 433L147 434L146 433z"/>
<path style="fill:#6e534d; stroke:none;" d="M443 434L442 436L444 436L443 434z"/>
<path style="fill:#d99a59; stroke:none;" d="M148 436L149 437L148 436z"/>
<path style="fill:#6e534d; stroke:none;" d="M440 436L440 438L442 438L442 436L440 436M437 438L439 440L439 438L437 438M436 440L436 442L438 440L436 440M432 444L436 442L432 444z"/>
<path style="fill:#d99a59; stroke:none;" d="M154 444L155 445L154 444z"/>
<path style="fill:#6e534d; stroke:none;" d="M155 444L156 445L155 444M428 445L429 446L428 445z"/>
<path style="fill:#cba799; stroke:none;" d="M431 445L432 446L431 445z"/>
<path style="fill:#d99a59; stroke:none;" d="M432 445L433 446L432 445M431 446L432 447L431 446z"/>
<path style="fill:#6e534d; stroke:none;" d="M424 448L426 450L426 448L424 448z"/>
<path style="fill:#d99a59; stroke:none;" d="M157.667 449.333L158.333 449.667L157.667 449.333z"/>
<path style="fill:#cba799; stroke:none;" d="M157 450L157 451L162 454L157 450z"/>
<path style="fill:#6e534d; stroke:none;" d="M420 450L416 454L422 450L420 450z"/>
<path style="fill:#d99a59; stroke:none;" d="M159 452L160 453L159 452M160 453L161 454L160 453z"/>
<path style="fill:#cba799; stroke:none;" d="M162 454L163 455L162 454z"/>
<path style="fill:#d99a59; stroke:none;" d="M163 455L164 456L163 455z"/>
<path style="fill:#6e534d; stroke:none;" d="M410 458L414 456L410 458M408 458L408 460L410 460L408 458M166 460L166 461L170 462L166 460M406 460L408 462L408 460L406 460M404 461L406 463L406 461L404 461M172 464L173 465L172 464M400.667 464.333L401.333 464.667L400.667 464.333M173 465L173 467L175 467L173 465z"/>
<path style="fill:#cba799; stroke:none;" d="M401.333 465.667L401.667 466.333L401.333 465.667M172 466L174 469L172 466z"/>
<path style="fill:#6e534d; stroke:none;" d="M396 466L398 468L398 466L396 466z"/>
<path style="fill:#d99a59; stroke:none;" d="M174 468L175 469L174 468z"/>
<path style="fill:#6e534d; stroke:none;" d="M181 468L178 470L178 473L183 476L184 475L183 468L181 468M392 470L395 470L393 468L392 470M292 508C296.37 510.833 296.14 520.031 297.441 525C300.918 538.281 304.556 551.157 313 562L314 560L315 560C315.76 563.545 318.716 563.379 322 564L319 560L316 561L315 554L318 553L316 551C329.348 537.589 338.708 532.882 357 529L356 526L358 528L359 528L360 525C365.916 525.141 362.138 519.341 360 517L364 517L362 513L362 512L362 509L362 508L365 503C362.506 500.966 362.794 500.206 365 498L361 488C364.726 484.499 356.049 477.45 353 476L355 474L350 473L350 472L364.981 475.05L375 481C371.177 477.673 367.838 473.823 363 471.955C343.942 464.596 305.783 469.946 293.727 488.039C289.727 494.041 292.948 501.357 292 508M389 470L391 472L391 470L389 470M189 472L190 473L189 472M386 472L388 474L388 472L386 472M185 474L186 475L185 474M191 474L190 476L192 476L191 474M384 474L385 475L384 474z"/>
<path style="fill:#d99a59; stroke:none;" d="M183 475L184 476L183 475z"/>
<path style="fill:#cba799; stroke:none;" d="M184 476L186 478L184 476z"/>
<path style="fill:#6e534d; stroke:none;" d="M185 476L186 479L189 478L189 482L204 490L198 486L198 482L197 482L197 484L196 484L194 480L195 482L194 482L190 476L185 476M379 476L381 478L381 476L379 476M378 477L379 478L378 477z"/>
<path style="fill:#a85c30; stroke:none;" d="M187 478L189 481L189 478L187 478z"/>
<path style="fill:#6e534d; stroke:none;" d="M379 478L380 479L379 478z"/>
<path style="fill:#cba799; stroke:none;" d="M189 480L190 481L189 480z"/>
<path style="fill:#6e534d; stroke:none;" d="M197.667 480.333L198.333 480.667L197.667 480.333z"/>
<path style="fill:#cba799; stroke:none;" d="M190 481L191 482L190 481z"/>
<path style="fill:#6e534d; stroke:none;" d="M368 481L369 482L368 481z"/>
<path style="fill:#cba799; stroke:none;" d="M372 484L375 481L372 484z"/>
<path style="fill:#6e534d; stroke:none;" d="M371 484L371 487L373 487L373 484L371 484M368 486L369 487L368 486z"/>
<path style="fill:#a85c30; stroke:none;" d="M200 487L201 488L200 487z"/>
<path style="fill:#6e534d; stroke:none;" d="M205 489L204 491L206 491L205 489M371 489L372 490L371 489z"/>
<path style="fill:#cba799; stroke:none;" d="M204 491L205 492L204 491z"/>
<path style="fill:#6e534d; stroke:none;" d="M206 491C208.377 494.78 211.714 495.431 216 495L216 494L212 494L212 493L214 493L214 492L206 491M371 494L372 495L371 494M214 496L214 497L237 503L214 496M371 496L372 497L371 496z"/>
<path style="fill:#a85c30; stroke:none;" d="M215 497L216 498L215 497z"/>
<path style="fill:#cba799; stroke:none;" d="M216.333 497.667L216.667 498.333L216.333 497.667z"/>
<path style="fill:#a85c30; stroke:none;" d="M217 497L217 499L219 499L219 497L217 497z"/>
<path style="fill:#6e534d; stroke:none;" d="M374 497C372.122 499.76 372.277 501.041 375 503L374 497M228.667 498.333L229.333 498.667L228.667 498.333M369.667 498.333L370.333 498.667L369.667 498.333z"/>
<path style="fill:#a85c30; stroke:none;" d="M220 499L221 500L220 499z"/>
<path style="fill:#cba799; stroke:none;" d="M221 499L222 500L221 499z"/>
<path style="fill:#a85c30; stroke:none;" d="M222 499L222 501L224 501L222 499z"/>
<path style="fill:#0c0604; stroke:none;" d="M373.333 499.667L373.667 500.333L373.333 499.667z"/>
<path style="fill:#d99a59; stroke:none;" d="M221 500L222 501L221 500z"/>
<path style="fill:#6e534d; stroke:none;" d="M369.667 501.333L370.333 501.667L369.667 501.333z"/>
<path style="fill:#a85c30; stroke:none;" d="M232 503L233 504L232 503z"/>
<path style="fill:#cba799; stroke:none;" d="M233 503L233 505L235 505L233 503z"/>
<path style="fill:#d99a59; stroke:none;" d="M234 503L235 504L234 503z"/>
<path style="fill:#6e534d; stroke:none;" d="M240 504L240 506L246 504L240 504M247 504L248 505L247 504M370 505L371 506L370 505M372 505L373 506L372 505M247 508L252 507L247 508z"/>
<path style="fill:#d99a59; stroke:none;" d="M251 507L252 508L251 507z"/>
<path style="fill:#6e534d; stroke:none;" d="M290 507L291 508L290 507M371 507L372 508L371 507M373 507L371 509L371 510C373.312 509.402 374.34 509.151 373 507z"/>
<path style="fill:#d99a59; stroke:none;" d="M290 508L291 509L290 508z"/>
<path style="fill:#cba799; stroke:none;" d="M289 510L295 509L289 510z"/>
<path style="fill:#a85c30; stroke:none;" d="M294 508L295 509L294 508z"/>
<path style="fill:#6e534d; stroke:none;" d="M365 508L365 509L368 509L365 508M369 509L370 510L369 509z"/>
<path style="fill:#a85c30; stroke:none;" d="M294 510L295 511L294 510z"/>
<path style="fill:#6e534d; stroke:none;" d="M371 511L372 512L371 511M373 511L374 512L373 511M372.333 513.667L372.667 514.333L372.333 513.667z"/>
<path style="fill:#0c0604; stroke:none;" d="M359 516L360 517L359 516z"/>
<path style="fill:#a85c30; stroke:none;" d="M296 517L297 518L296 517z"/>
<path style="fill:#6e534d; stroke:none;" d="M372 518L372 520L374 520L374 518L372 518M369.667 520.333L370.333 520.667L369.667 520.333M370.667 523.333L371.333 523.667L370.667 523.333M372 525L373 526L372 525M371 527L372 528L371 527z"/>
<path style="fill:#0c0604; stroke:none;" d="M344.333 528.667L344.667 529.333L344.333 528.667z"/>
<path style="fill:#6e534d; stroke:none;" d="M370 529L371 530L370 529M369 531L369 534L370 534L369 531M371 531L371 533L373 531L371 531M336 535L337 536L336 535M371 535L372 536L371 535z"/>
<path style="fill:#a85c30; stroke:none;" d="M302 537L303 538L302 537z"/>
<path style="fill:#6e534d; stroke:none;" d="M369.333 537.667L369.667 538.333L369.333 537.667z"/>
<path style="fill:#a85c30; stroke:none;" d="M301 538L302 539L301 538z"/>
<path style="fill:#6e534d; stroke:none;" d="M368 540L369 541L368 540M370 540L371 541L370 540M364 544L365 545L364 544M363 546L364 547L363 546M363 548L361 551L363 548z"/>
<path style="fill:#a85c30; stroke:none;" d="M311 549L310 552L311 549M308 551L309 552L308 551z"/>
<path style="fill:#6e534d; stroke:none;" d="M350 552L351 553L350 552z"/>
<path style="fill:#a85c30; stroke:none;" d="M310 553L311 554L310 553z"/>
<path style="fill:#6e534d; stroke:none;" d="M353.667 553.333L354.333 553.667L353.667 553.333M350 557L349 559L351 559L350 557z"/>
<path style="fill:#0c0604; stroke:none;" d="M314 560L315 561L314 560z"/>
<path style="fill:#6e534d; stroke:none;" d="M325 560L326 561L325 560M331 560L332 561L331 560M337 560L338 562L337 562L335 561L334 561L334 562C336.27 562.521 338.673 562.694 337 560z"/>
<path style="fill:#cba799; stroke:none;" d="M314 561L315 562L314 561z"/>
<path style="fill:#6e534d; stroke:none;" d="M322 561L323 562L322 561M327 561L328 562L327 561z"/>
<path style="fill:#a85c30; stroke:none;" d="M337 561L338 562L337 561M314 562L315 563L314 562z"/>
</svg>
