<?xml version="1.0" standalone="no"?>
<!DOCTYPE svg PUBLIC "-//W3C//DTD SVG 20010904//EN"
 "http://www.w3.org/TR/2001/REC-SVG-20010904/DTD/svg10.dtd">
<svg version="1.0" xmlns="http://www.w3.org/2000/svg"
 width="50px" height="50px" viewBox="0 0 532.000000 503.000000"
 preserveAspectRatio="xMidYMid meet">

<g transform="translate(0.000000,503.000000) scale(0.100000,-0.100000)"
fill="" stroke="none">
<path d="M3684 5002 c9 -15 -36 -26 -68 -18 -48 12 -178 -118 -178 -179 0 -13
-7 -30 -14 -36 -8 -6 -14 -20 -14 -30 0 -10 -4 -21 -10 -24 -19 -12 -10 -45
15 -55 14 -5 95 -43 180 -85 86 -41 159 -75 163 -75 4 0 18 -10 32 -21 l25
-20 -30 14 c-16 8 -97 32 -180 53 -82 21 -152 41 -155 44 -3 4 -48 10 -100 13
-52 3 -138 11 -190 18 -217 30 -581 6 -725 -46 -22 -8 -57 -16 -77 -18 -20 -2
-44 -9 -52 -16 -8 -7 -24 -10 -36 -6 -11 3 -20 2 -20 -3 0 -6 -12 -13 -27 -16
-54 -13 -209 -81 -281 -123 -40 -24 -76 -43 -80 -43 -4 0 -23 -13 -42 -30 -19
-16 -36 -27 -38 -25 -2 2 -18 -6 -36 -18 -18 -12 -52 -33 -76 -47 -24 -14 -56
-37 -72 -52 -16 -16 -33 -28 -37 -28 -4 0 -21 -12 -37 -26 -16 -14 -67 -58
-114 -97 -87 -72 -226 -204 -283 -267 -109 -119 -105 -117 -192 -125 -44 -3
-104 -13 -133 -21 -46 -13 -57 -21 -83 -62 -25 -39 -29 -54 -24 -87 8 -53 39
-100 75 -115 l29 -12 -42 -82 c-23 -44 -46 -84 -51 -87 -5 -4 -6 -14 -3 -23 4
-9 2 -16 -3 -16 -14 0 -63 -112 -89 -201 -12 -41 -26 -88 -31 -105 -6 -17 -10
-40 -10 -52 0 -11 -4 -23 -9 -27 -6 -3 -13 -27 -16 -53 -3 -26 -10 -54 -14
-62 -5 -9 -12 -49 -15 -90 -12 -132 -16 -162 -22 -171 -3 -5 -5 -65 -5 -134 0
-122 15 -243 33 -277 5 -12 5 -18 -2 -18 -5 0 -10 1 -10 3 0 2 -13 56 -30 120
-16 64 -33 142 -36 172 -6 50 -9 55 -32 55 -14 0 -69 -14 -124 -31 -110 -34
-180 -82 -233 -160 -29 -43 -30 -47 -30 -169 0 -118 2 -128 28 -179 16 -29 49
-73 74 -97 102 -99 186 -124 424 -124 87 0 158 -4 156 -9 -4 -15 44 -72 55
-65 6 4 8 3 5 -2 -8 -13 23 -75 34 -68 5 3 9 -2 9 -10 0 -9 3 -16 8 -16 4 0
13 -15 21 -32 18 -42 57 -89 65 -80 4 3 5 0 1 -8 -3 -8 7 -28 21 -45 14 -16
38 -46 52 -65 88 -115 283 -292 312 -282 8 3 12 1 8 -3 -10 -11 94 -90 162
-125 30 -15 88 -39 128 -54 41 -14 81 -30 90 -35 9 -5 33 -12 53 -15 20 -3 49
-10 65 -16 15 -6 39 -8 52 -5 14 3 21 2 18 -4 -10 -15 95 -25 282 -25 163 -1
173 -2 179 -21 4 -11 8 -29 8 -40 2 -47 18 -125 26 -125 5 0 9 -13 9 -29 0
-16 8 -53 19 -83 10 -29 24 -71 31 -93 17 -51 45 -93 84 -125 26 -22 42 -25
119 -29 49 -1 99 1 111 7 11 5 54 20 94 32 113 35 243 139 262 210 26 98 30
419 7 465 -6 11 -10 30 -10 43 1 12 1 36 2 53 1 27 4 31 22 26 20 -5 57 12 87
40 6 6 22 15 35 19 12 4 54 29 94 55 40 27 76 49 80 49 9 1 90 60 81 60 -3 0
7 14 23 31 15 16 34 29 41 28 24 -3 34 1 83 33 76 50 155 111 203 157 24 22
46 41 50 41 10 0 182 167 182 178 0 4 16 23 35 42 19 19 35 31 35 26 0 -4 20
12 45 35 25 23 45 48 45 56 0 7 5 13 10 13 19 0 210 224 210 246 0 8 44 69 52
72 4 2 24 30 43 62 20 32 43 61 53 64 9 2 47 3 85 1 39 -2 67 0 67 6 0 6 6 6
18 0 10 -5 24 -6 32 -1 7 4 24 4 38 -1 24 -9 99 -4 132 8 23 9 42 13 87 17 50
4 138 48 174 86 65 70 87 165 88 378 1 72 -3 112 -14 131 -34 66 -152 113
-316 127 -86 7 -169 15 -169 18 0 0 -3 53 -6 116 -3 63 -10 131 -15 150 -4 19
-9 38 -9 42 -1 4 -8 25 -17 45 -9 21 -17 51 -19 67 -2 17 -13 48 -23 70 -11
23 -25 60 -32 83 -7 25 -22 49 -36 59 -18 11 -23 22 -20 36 4 12 -5 37 -21 62
-15 22 -31 48 -37 57 -72 111 -118 169 -135 169 -6 0 -8 5 -5 10 3 6 1 10 -4
10 -6 0 -11 6 -11 13 0 16 -142 167 -157 167 -7 0 -23 17 -36 38 -29 45 -101
112 -122 112 -20 0 -19 10 1 25 14 10 17 38 17 202 0 119 -5 211 -13 244 -15
65 -51 140 -83 171 -13 13 -28 31 -33 39 -5 9 -45 36 -88 59 -70 39 -88 44
-159 48 -57 3 -78 2 -73 -6z m767 -1399 c13 -16 12 -17 -3 -4 -17 13 -22 21
-14 21 2 0 10 -8 17 -17z m-587 -69 c5 -14 4 -15 -9 -4 -17 14 -19 20 -6 20 5
0 12 -7 15 -16z m-988 -472 c41 -51 88 -153 87 -186 -2 -67 -51 -126 -218
-264 -60 -50 -121 -97 -135 -104 -14 -7 -45 -25 -69 -40 -32 -20 -58 -28 -89
-28 -42 0 -49 4 -119 76 -74 74 -75 76 -56 96 19 22 63 58 288 243 77 63 172
141 210 174 39 34 72 60 75 60 3 0 15 -12 26 -27z m1034 -47 c0 -14 -4 -25
-10 -25 -11 0 -14 33 -3 43 11 11 13 8 13 -18z m-177 -468 c-10 -20 -21 -37
-26 -37 -4 0 2 18 14 40 28 49 34 47 12 -3z m-62 -91 c-6 -14 -15 -26 -21 -26
-7 0 -4 13 6 30 21 35 29 33 15 -4z m-131 -182 c0 -8 -4 -13 -9 -10 -5 4 -18
-9 -30 -26 -18 -30 -61 -66 -61 -53 0 7 91 105 96 105 2 0 4 -7 4 -16z m-160
-170 c0 -8 -4 -12 -10 -9 -5 3 -10 1 -10 -4 0 -6 -5 -11 -12 -11 -6 0 -3 9 7
20 22 24 25 25 25 4z m-743 -490 c-3 -3 -12 -4 -19 -1 -8 3 -5 6 6 6 11 1 17
-2 13 -5z"/>
</g>
</svg>
